<?xml version="1.0" encoding="UTF-8"?>
<svg viewBox="0 0 512 512" version="1.1" xmlns="http://www.w3.org/2000/svg" width="512" height="512">
    <path d="M0 0 C17.16 0 34.32 0 52 0 C52 16.83 52 33.66 52 51 C68.83 51 85.66 51 103 51 C103 67.83 103 84.66 103 102 C119.83 102 136.66 102 154 102 C154 118.83 154 135.66 154 153 C171.16 153 188.32 153 206 153 C206 170.16 206 187.32 206 205 C188.84 205 171.68 205 154 205 C154 188.17 154 171.34 154 154 C136.84 154 119.68 154 102 154 C102 137.17 102 120.34 102 103 C85.5 103 69 103 52 103 C52 204.31 52 305.62 52 410 C34.84 410 17.68 410 0 410 C0 308.69 0 207.38 0 103 C-16.5 103 -33 103 -50 103 C-50 119.83 -50 136.66 -50 154 C-67.16 154 -84.32 154 -102 154 C-102 170.83 -102 187.66 -102 205 C-119.16 205 -136.32 205 -154 205 C-154 187.84 -154 170.68 -154 153 C-136.84 153 -119.68 153 -102 153 C-102 136.17 -102 119.34 -102 102 C-85.17 102 -68.34 102 -51 102 C-51 85.17 -51 68.34 -51 51 C-34.17 51 -17.34 51 0 51 C0 34.17 0 17.34 0 0 Z "
          fill="#e5e5e5" transform="translate(230,51)"/>
</svg>
