<?xml version="1.0" encoding="UTF-8"?>
<svg viewBox="0 0 512 512" version="1.1" xmlns="http://www.w3.org/2000/svg" width="512" height="512">
    <path d="M0 0 C17.16 0 34.32 0 52 0 C52 16.83 52 33.66 52 51 C119.65 51 187.3 51 257 51 C257 68.16 257 85.32 257 103 C239.84 103 222.68 103 205 103 C205 204.31 205 305.62 205 410 C188.17 410 171.34 410 154 410 C154 426.83 154 443.66 154 461 C69.19 461 -15.62 461 -103 461 C-103 444.17 -103 427.34 -103 410 C-119.83 410 -136.66 410 -154 410 C-154 308.69 -154 207.38 -154 103 C-170.83 103 -187.66 103 -205 103 C-205 85.84 -205 68.68 -205 51 C-137.35 51 -69.7 51 0 51 C0 34.17 0 17.34 0 0 Z M-102 103 C-102 203.98 -102 304.96 -102 409 C-17.85 409 66.3 409 153 409 C153 308.02 153 207.04 153 103 C68.85 103 -15.3 103 -102 103 Z "
          fill="#e5e5e5" transform="translate(231,26)"/>
    <path d="M0 0 C17.49 0 34.98 0 53 0 C53 67.98 53 135.96 53 206 C35.51 206 18.02 206 0 206 C0 138.02 0 70.04 0 0 Z "
          fill="#e5e5e5" transform="translate(179,179)"/>
    <path d="M0 0 C17.16 0 34.32 0 52 0 C52 67.98 52 135.96 52 206 C34.84 206 17.68 206 0 206 C0 138.02 0 70.04 0 0 Z "
          fill="#e5e5e5" transform="translate(282,179)"/>
</svg>
