<?xml version="1.0" encoding="UTF-8"?>
<svg viewBox="0 0 512 512" version="1.1" xmlns="http://www.w3.org/2000/svg" width="512" height="512">
    <path d="M0 0 C17.16 0 34.32 0 52 0 C52 16.83 52 33.66 52 51 C68.83 51 85.66 51 103 51 C103 67.83 103 84.66 103 102 C119.83 102 136.66 102 154 102 C154 119.16 154 136.32 154 154 C137.17 154 120.34 154 103 154 C103 170.83 103 187.66 103 205 C86.17 205 69.34 205 52 205 C52 222.16 52 239.32 52 257 C35.17 257 18.34 257 1 257 C1 273.83 1 290.66 1 308 C-16.16 308 -33.32 308 -51 308 C-51 324.83 -51 341.66 -51 359 C-67.83 359 -84.66 359 -102 359 C-102 375.83 -102 392.66 -102 410 C-152.82 410 -203.64 410 -256 410 C-256 359.18 -256 308.36 -256 256 C-239.17 256 -222.34 256 -205 256 C-205 239.17 -205 222.34 -205 205 C-188.17 205 -171.34 205 -154 205 C-154 187.84 -154 170.68 -154 153 C-137.17 153 -120.34 153 -103 153 C-103 136.17 -103 119.34 -103 102 C-85.84 102 -68.68 102 -51 102 C-51 85.17 -51 68.34 -51 51 C-34.17 51 -17.34 51 0 51 C0 34.17 0 17.34 0 0 Z M1 52 C1 68.5 1 85 1 102 C17.5 102 34 102 51 102 C51 85.5 51 69 51 52 C34.5 52 18 52 1 52 Z M-51 103 C-51 119.83 -51 136.66 -51 154 C-67.83 154 -84.66 154 -102 154 C-102 170.83 -102 187.66 -102 205 C-118.83 205 -135.66 205 -153 205 C-153 222.16 -153 239.32 -153 257 C-169.83 257 -186.66 257 -204 257 C-204 290.33 -204 323.66 -204 358 C-170.67 358 -137.34 358 -103 358 C-103 341.17 -103 324.34 -103 307 C-85.84 307 -68.68 307 -51 307 C-51 290.17 -51 273.34 -51 256 C-34.17 256 -17.34 256 0 256 C0 239.17 0 222.34 0 205 C16.83 205 33.66 205 51 205 C51 188.17 51 171.34 51 154 C34.17 154 17.34 154 0 154 C0 137.17 0 120.34 0 103 C-16.83 103 -33.66 103 -51 103 Z M52 103 C52 119.5 52 136 52 153 C68.5 153 85 153 102 153 C102 136.5 102 120 102 103 C85.5 103 69 103 52 103 Z "
          fill="#e5e5e5" transform="translate(307,51)"/>
</svg>
