<?xml version="1.0" encoding="UTF-8"?>
<svg viewBox="0 0 512 512" version="1.1" xmlns="http://www.w3.org/2000/svg" width="512" height="512">
    <path d="M0 0 C13.2 0 26.4 0 40 0 C40 91.08 40 182.16 40 276 C52.87 276 65.74 276 79 276 C79 288.87 79 301.74 79 315 C66.13 315 53.26 315 40 315 C40 328.2 40 341.4 40 355 C26.8 355 13.6 355 0 355 C0 341.8 0 328.6 0 315 C-12.87 315 -25.74 315 -39 315 C-39 302.13 -39 289.26 -39 276 C-26.13 276 -13.26 276 0 276 C0 184.92 0 93.84 0 0 Z "
          fill="#e5e5e5" transform="translate(236,39)"/>
    <path d="M0 0 C91.08 0 182.16 0 276 0 C276 13.2 276 26.4 276 40 C184.92 40 93.84 40 0 40 C0 26.8 0 13.6 0 0 Z "
          fill="#e5e5e5" transform="translate(118,433)"/>
    <path d="M0 0 C13.2 0 26.4 0 40 0 C40 13.2 40 26.4 40 40 C26.8 40 13.6 40 0 40 C0 26.8 0 13.6 0 0 Z " fill="#e5e5e5"
          transform="translate(354,236)"/>
    <path d="M0 0 C13.2 0 26.4 0 40 0 C40 13.2 40 26.4 40 40 C26.8 40 13.6 40 0 40 C0 26.8 0 13.6 0 0 Z " fill="#e5e5e5"
          transform="translate(118,236)"/>
    <path d="M0 0 C12.87 0 25.74 0 39 0 C39 12.87 39 25.74 39 39 C26.13 39 13.26 39 0 39 C0 26.13 0 13.26 0 0 Z "
          fill="#e5e5e5" transform="translate(315,276)"/>
    <path d="M0 0 C12.87 0 25.74 0 39 0 C39 12.87 39 25.74 39 39 C26.13 39 13.26 39 0 39 C0 26.13 0 13.26 0 0 Z "
          fill="#e5e5e5" transform="translate(158,276)"/>
</svg>
