<?xml version="1.0" encoding="UTF-8"?>
<svg viewBox="0 0 512 512" version="1.1" xmlns="http://www.w3.org/2000/svg" width="512" height="512">
    <path d="M0 0 C118.47 0 236.94 0 359 0 C359 152.46 359 304.92 359 462 C341.84 462 324.68 462 307 462 C307 445.17 307 428.34 307 411 C290.17 411 273.34 411 256 411 C256 394.17 256 377.34 256 360 C239.17 360 222.34 360 205 360 C205 343.17 205 326.34 205 309 C188.5 309 172 309 155 309 C155 325.83 155 342.66 155 360 C137.84 360 120.68 360 103 360 C103 376.83 103 393.66 103 411 C86.17 411 69.34 411 52 411 C52 427.83 52 444.66 52 462 C34.84 462 17.68 462 0 462 C0 309.54 0 157.08 0 0 Z M52 52 C52 153.31 52 254.62 52 359 C68.5 359 85 359 102 359 C102 342.17 102 325.34 102 308 C118.83 308 135.66 308 153 308 C153 291.17 153 274.34 153 257 C170.49 257 187.98 257 206 257 C206 273.83 206 290.66 206 308 C222.83 308 239.66 308 257 308 C257 324.83 257 341.66 257 359 C273.5 359 290 359 307 359 C307 257.69 307 156.38 307 52 C222.85 52 138.7 52 52 52 Z "
          fill="#e5e5e5" transform="translate(77,25)"/>
    <path d="M0 0 C51.15 0 102.3 0 155 0 C155 17.16 155 34.32 155 52 C103.85 52 52.7 52 0 52 C0 34.84 0 17.68 0 0 Z "
          fill="#e5e5e5" transform="translate(179,128)"/>
</svg>
