<?xml version="1.0" encoding="UTF-8"?>
<svg viewBox="0 0 512 512" version="1.1" xmlns="http://www.w3.org/2000/svg" width="512" height="512">
    <path d="M0 0 C14.19 0 28.38 0 43 0 C43 28.05 43 56.1 43 85 C99.43 85 155.86 85 214 85 C214 127.57 214 170.14 214 214 C157.57 214 101.14 214 43 214 C43 242.38 43 270.76 43 300 C28.81 300 14.62 300 0 300 C0 285.81 0 271.62 0 257 C-14.19 257 -28.38 257 -43 257 C-43 242.81 -43 228.62 -43 214 C-56.86 214 -70.72 214 -85 214 C-85 200.14 -85 186.28 -85 172 C-99.19 172 -113.38 172 -128 172 C-128 157.48 -128 142.96 -128 128 C-113.81 128 -99.62 128 -85 128 C-85 113.81 -85 99.62 -85 85 C-71.14 85 -57.28 85 -43 85 C-43 71.14 -43 57.28 -43 43 C-28.81 43 -14.62 43 0 43 C0 28.81 0 14.62 0 0 Z "
          fill="#e5e5e5" transform="translate(277,106)"/>
    <path d="M0 0 C14.52 0 29.04 0 44 0 C44 14.52 44 29.04 44 44 C29.81 44 15.62 44 1 44 C1 57.86 1 71.72 1 86 C-13.19 86 -27.38 86 -42 86 C-42 100.19 -42 114.38 -42 129 C-55.86 129 -69.72 129 -84 129 C-84 142.86 -84 156.72 -84 171 C-70.14 171 -56.28 171 -42 171 C-42 184.86 -42 198.72 -42 213 C-27.81 213 -13.62 213 1 213 C1 227.19 1 241.38 1 256 C15.19 256 29.38 256 44 256 C44 270.52 44 285.04 44 300 C29.48 300 14.96 300 0 300 C0 285.81 0 271.62 0 257 C-14.19 257 -28.38 257 -43 257 C-43 242.81 -43 228.62 -43 214 C-56.86 214 -70.72 214 -85 214 C-85 200.14 -85 186.28 -85 172 C-99.19 172 -113.38 172 -128 172 C-128 157.48 -128 142.96 -128 128 C-113.81 128 -99.62 128 -85 128 C-85 113.81 -85 99.62 -85 85 C-71.14 85 -57.28 85 -43 85 C-43 71.14 -43 57.28 -43 43 C-28.81 43 -14.62 43 0 43 C0 28.81 0 14.62 0 0 Z "
          fill="#e5e5e5" transform="translate(149,106)"/>
</svg>
