<?xml version="1.0" encoding="UTF-8"?>
<svg viewBox="0 0 512 512" version="1.1" xmlns="http://www.w3.org/2000/svg" width="512" height="512">
    <path d="M0 0 C14.19 0 28.38 0 43 0 C43 14.19 43 28.38 43 43 C57.19 43 71.38 43 86 43 C86 57.19 86 71.38 86 86 C99.86 86 113.72 86 128 86 C128 99.86 128 113.72 128 128 C142.19 128 156.38 128 171 128 C171 142.52 171 157.04 171 172 C156.81 172 142.62 172 128 172 C128 186.19 128 200.38 128 215 C114.14 215 100.28 215 86 215 C86 228.86 86 242.72 86 257 C71.81 257 57.62 257 43 257 C43 271.19 43 285.38 43 300 C28.81 300 14.62 300 0 300 C0 271.95 0 243.9 0 215 C-56.43 215 -112.86 215 -171 215 C-171 172.43 -171 129.86 -171 86 C-114.57 86 -58.14 86 0 86 C0 57.62 0 29.24 0 0 Z "
          fill="#e5e5e5" transform="translate(192,106)"/>
    <path d="M0 0 C14.52 0 29.04 0 44 0 C44 14.19 44 28.38 44 43 C58.19 43 72.38 43 87 43 C87 57.19 87 71.38 87 86 C100.86 86 114.72 86 129 86 C129 99.86 129 113.72 129 128 C143.19 128 157.38 128 172 128 C172 142.52 172 157.04 172 172 C157.81 172 143.62 172 129 172 C129 186.19 129 200.38 129 215 C115.14 215 101.28 215 87 215 C87 228.86 87 242.72 87 257 C72.81 257 58.62 257 44 257 C44 271.19 44 285.38 44 300 C29.48 300 14.96 300 0 300 C0 285.48 0 270.96 0 256 C14.19 256 28.38 256 43 256 C43 242.14 43 228.28 43 214 C57.19 214 71.38 214 86 214 C86 199.81 86 185.62 86 171 C99.86 171 113.72 171 128 171 C128 157.14 128 143.28 128 129 C114.14 129 100.28 129 86 129 C86 115.14 86 101.28 86 87 C71.81 87 57.62 87 43 87 C43 72.81 43 58.62 43 44 C28.81 44 14.62 44 0 44 C0 29.48 0 14.96 0 0 Z "
          fill="#e5e5e5" transform="translate(319,106)"/>
</svg>
