<?xml version="1.0" encoding="UTF-8"?>
<svg viewBox="0 0 512 512" version="1.1" xmlns="http://www.w3.org/2000/svg" width="512" height="512">
    <path d="M0 0 C14.52 0 29.04 0 44 0 C44 13.86 44 27.72 44 42 C57.86 42 71.72 42 86 42 C86 56.19 86 70.38 86 85 C100.19 85 114.38 85 129 85 C129 99.52 129 114.04 129 129 C114.81 129 100.62 129 86 129 C86 142.86 86 156.72 86 171 C72.14 171 58.28 171 44 171 C44 185.19 44 199.38 44 214 C29.48 214 14.96 214 0 214 C-0.020625 206.925625 -0.04125 199.85125 -0.0625 192.5625 C-0.071604 190.32670166 -0.08070801 188.09090332 -0.09008789 185.78735352 C-0.09300696 184.02620504 -0.09555554 182.26505589 -0.09765625 180.50390625 C-0.10277222 179.58057495 -0.10788818 178.65724365 -0.11315918 177.70593262 C-0.11328003 176.83303589 -0.11340088 175.96013916 -0.11352539 175.06079102 C-0.115746 174.29912125 -0.11796661 173.53745148 -0.12025452 172.75270081 C0 171 0 171 1 170 C4.10251201 169.91125865 7.1826812 169.88481545 10.28515625 169.90234375 C11.21597519 169.9037587 12.14679413 169.90517365 13.1058197 169.90663147 C16.09141191 169.91224828 19.07693029 169.9248036 22.0625 169.9375 C24.08137913 169.94251284 26.10025943 169.94707612 28.11914062 169.95117188 C33.07947871 169.96137413 38.0396563 169.98094618 43 170 C43 156.47 43 142.94 43 129 C11.65 129 -19.7 129 -52 129 C-52 142.86 -52 156.72 -52 171 C-66.19 171 -80.38 171 -95 171 C-95 185.19 -95 199.38 -95 214 C-109.19 214 -123.38 214 -138 214 C-138 227.86 -138 241.72 -138 256 C-123.81 256 -109.62 256 -95 256 C-95 270.19 -95 284.38 -95 299 C-80.81 299 -66.62 299 -52 299 C-52 312.86 -52 326.72 -52 341 C-20.65 341 10.7 341 43 341 C43 327.47 43 313.94 43 300 C28.81 300 14.62 300 0 300 C0 285.48 0 270.96 0 256 C14.52 256 29.04 256 44 256 C44 270.19 44 284.38 44 299 C57.86 299 71.72 299 86 299 C86 312.86 86 326.72 86 341 C100.19 341 114.38 341 129 341 C129 355.52 129 370.04 129 385 C114.81 385 100.62 385 86 385 C86 398.86 86 412.72 86 427 C72.14 427 58.28 427 44 427 C44 441.19 44 455.38 44 470 C29.48 470 14.96 470 0 470 C0 455.48 0 440.96 0 426 C14.19 426 28.38 426 43 426 C43 412.47 43 398.94 43 385 C11.32 385 -20.36 385 -53 385 C-53 370.81 -53 356.62 -53 342 C-67.19 342 -81.38 342 -96 342 C-96 328.14 -96 314.28 -96 300 C-109.77724113 300.03960567 -109.77724113 300.03960567 -123.55444336 300.09008789 C-125.2745762 300.09300698 -126.99470972 300.09555555 -128.71484375 300.09765625 C-129.61658325 300.10277222 -130.51832275 300.10788818 -131.4473877 300.11315918 C-133.63191745 300.11346882 -135.8163633 300.0624587 -138 300 C-139 299 -139 299 -139.11352539 295.03100586 C-139.1133662 293.25894393 -139.10766785 291.4868774 -139.09765625 289.71484375 C-139.09553383 288.31861534 -139.09553383 288.31861534 -139.09336853 286.8941803 C-139.08775172 283.90858809 -139.0751964 280.92306971 -139.0625 277.9375 C-139.05748716 275.91862087 -139.05292388 273.89974057 -139.04882812 271.88085938 C-139.03862587 266.92052129 -139.01905382 261.9603437 -139 257 C-152.53 257 -166.06 257 -180 257 C-180 271.19 -180 285.38 -180 300 C-194.19 300 -208.38 300 -223 300 C-223 313.86 -223 327.72 -223 342 C-237.19 342 -251.38 342 -266 342 C-266 356.19 -266 370.38 -266 385 C-290.75 385 -315.5 385 -341 385 C-341 370.48 -341 355.96 -341 341 C-316.58 341 -292.16 341 -267 341 C-267 327.14 -267 313.28 -267 299 C-252.81 299 -238.62 299 -224 299 C-224 284.81 -224 270.62 -224 256 C-209.81 256 -195.62 256 -181 256 C-181 242.14 -181 228.28 -181 214 C-195.19 214 -209.38 214 -224 214 C-224 199.81 -224 185.62 -224 171 C-238.19 171 -252.38 171 -267 171 C-267 157.14 -267 143.28 -267 129 C-291.42 129 -315.84 129 -341 129 C-341 114.48 -341 99.96 -341 85 C-316.25 85 -291.5 85 -266 85 C-266 99.19 -266 113.38 -266 128 C-251.81 128 -237.62 128 -223 128 C-223 141.86 -223 155.72 -223 170 C-209.22275887 169.96039433 -209.22275887 169.96039433 -195.44555664 169.90991211 C-193.7254238 169.90699302 -192.00529028 169.90444445 -190.28515625 169.90234375 C-189.38341675 169.89722778 -188.48167725 169.89211182 -187.5526123 169.88684082 C-185.36808255 169.88653118 -183.1836367 169.9375413 -181 170 C-180 171 -180 171 -179.88647461 174.96899414 C-179.8866338 176.74105607 -179.89233215 178.5131226 -179.90234375 180.28515625 C-179.90446617 181.68138466 -179.90446617 181.68138466 -179.90663147 183.1058197 C-179.91224828 186.09141191 -179.9248036 189.07693029 -179.9375 192.0625 C-179.94251284 194.08137913 -179.94707612 196.10025943 -179.95117188 198.11914062 C-179.96137413 203.07947871 -179.98094618 208.0396563 -180 213 C-166.47 213 -152.94 213 -139 213 C-139.01160156 209.97972656 -139.02320313 206.95945313 -139.03515625 203.84765625 C-139.04294609 200.9353038 -139.04902326 198.0229525 -139.05493164 195.1105957 C-139.05997278 193.08031702 -139.06680557 191.05004198 -139.07543945 189.01977539 C-139.08751467 186.10822653 -139.09323034 183.1967255 -139.09765625 180.28515625 C-139.10281754 179.3716188 -139.10797882 178.45808136 -139.11329651 177.51686096 C-139.11349168 175.34424573 -139.06211805 173.17172704 -139 171 C-138 170 -138 170 -134.03100586 169.88647461 C-132.25894395 169.88672579 -130.48687716 169.89229022 -128.71484375 169.90234375 C-127.47788757 169.90385437 -127.47788757 169.90385437 -126.21594238 169.90539551 C-123.12311419 169.91064408 -120.03030576 169.92460523 -116.9375 169.9375 C-110.028125 169.958125 -103.11875 169.97875 -96 170 C-96 156.14 -96 142.28 -96 128 C-81.81 128 -67.62 128 -53 128 C-53 113.81 -53 99.62 -53 85 C-21.32 85 10.36 85 43 85 C43 71.14 43 57.28 43 43 C28.81 43 14.62 43 0 43 C0 28.81 0 14.62 0 0 Z "
          fill="#e5e5e5" transform="translate(362,21)"/>
</svg>
