<?xml version="1.0" encoding="UTF-8"?>
<svg viewBox="0 0 512 512" version="1.1" xmlns="http://www.w3.org/2000/svg" width="512" height="512">
    <path d="M0 0 C46.2 0 92.4 0 140 0 C140 7.92 140 15.84 140 24 C124.49 24 108.98 24 93 24 C93 31.59 93 39.18 93 47 C139.2 47 185.4 47 233 47 C233 77.69 233 108.38 233 140 C263.69 140 294.38 140 326 140 C326 170.69 326 201.38 326 233 C318.41 233 310.82 233 303 233 C303 209.9 303 186.8 303 163 C249.21 163 195.42 163 140 163 C140 186.1 140 209.2 140 233 C132.41 233 124.82 233 117 233 C117 202.31 117 171.62 117 140 C147.69 140 178.38 140 210 140 C210 124.49 210 108.98 210 93 C117.6 93 25.2 93 -70 93 C-70 108.51 -70 124.02 -70 140 C-39.31 140 -8.62 140 23 140 C23 170.69 23 201.38 23 233 C15.41 233 7.82 233 0 233 C0 209.9 0 186.8 0 163 C-53.79 163 -107.58 163 -163 163 C-163 186.1 -163 209.2 -163 233 C-170.59 233 -178.18 233 -186 233 C-186 202.31 -186 171.62 -186 140 C-155.31 140 -124.62 140 -93 140 C-93 109.31 -93 78.62 -93 47 C-46.8 47 -0.6 47 47 47 C47 39.41 47 31.82 47 24 C31.49 24 15.98 24 0 24 C0 16.08 0 8.16 0 0 Z "
          fill="#e5e5e5" transform="translate(186,279)"/>
    <path d="M0 0 C92.4 0 184.8 0 280 0 C280 30.69 280 61.38 280 93 C272.08 93 264.16 93 256 93 C256 100.59 256 108.18 256 116 C240.82 116 225.64 116 210 116 C210 131.51 210 147.02 210 163 C194.49 163 178.98 163 163 163 C163 178.18 163 193.36 163 209 C170.92 209 178.84 209 187 209 C187 216.92 187 224.84 187 233 C155.98 233 124.96 233 93 233 C93 225.08 93 217.16 93 209 C100.92 209 108.84 209 117 209 C117 193.82 117 178.64 117 163 C101.49 163 85.98 163 70 163 C70 147.49 70 131.98 70 116 C54.82 116 39.64 116 24 116 C24 108.41 24 100.82 24 93 C16.08 93 8.16 93 0 93 C0 62.31 0 31.62 0 0 Z M24 23 C24 38.51 24 54.02 24 70 C31.59 70 39.18 70 47 70 C47 77.59 47 85.18 47 93 C54.59 93 62.18 93 70 93 C70 69.9 70 46.8 70 23 C54.82 23 39.64 23 24 23 Z M93 23 C93 61.61 93 100.22 93 140 C124.02 140 155.04 140 187 140 C187 101.39 187 62.78 187 23 C155.98 23 124.96 23 93 23 Z M210 23 C210 46.1 210 69.2 210 93 C217.59 93 225.18 93 233 93 C233 85.41 233 77.82 233 70 C240.59 70 248.18 70 256 70 C256 54.49 256 38.98 256 23 C240.82 23 225.64 23 210 23 Z "
          fill="#e5e5e5" transform="translate(116,0)"/>
</svg>
