<?xml version="1.0" encoding="UTF-8"?>
<svg viewBox="0 0 512 512" version="1.1" xmlns="http://www.w3.org/2000/svg" width="512" height="512">
    <path d="M0 0 C63.36 0 126.72 0 192 0 C192 26.4 192 52.8 192 80 C128.64 80 65.28 80 0 80 C0 53.6 0 27.2 0 0 Z M16 16 C16 31.84 16 47.68 16 64 C68.8 64 121.6 64 176 64 C176 48.16 176 32.32 176 16 C123.2 16 70.4 16 16 16 Z "
          fill="#e5e5e5" transform="translate(160,384)"/>
    <path d="M0 0 C5.28 0 10.56 0 16 0 C16 5.28 16 10.56 16 16 C31.84 16 47.68 16 64 16 C64 21.28 64 26.56 64 32 C48.16 32 32.32 32 16 32 C16 37.28 16 42.56 16 48 C26.56 48 37.12 48 48 48 C48 74.4 48 100.8 48 128 C42.72 128 37.44 128 32 128 C32 133.28 32 138.56 32 144 C26.72 144 21.44 144 16 144 C16 149.28 16 154.56 16 160 C10.72 160 5.44 160 0 160 C0 107.2 0 54.4 0 0 Z M16 64 C16 85.12 16 106.24 16 128 C21.28 128 26.56 128 32 128 C32 106.88 32 85.76 32 64 C26.72 64 21.44 64 16 64 Z "
          fill="#e5e5e5" transform="translate(368,32)"/>
    <path d="M0 0 C5.28 0 10.56 0 16 0 C16 52.8 16 105.6 16 160 C10.72 160 5.44 160 0 160 C0 154.72 0 149.44 0 144 C-5.28 144 -10.56 144 -16 144 C-16 138.72 -16 133.44 -16 128 C-21.28 128 -26.56 128 -32 128 C-32 101.6 -32 75.2 -32 48 C-21.44 48 -10.88 48 0 48 C0 42.72 0 37.44 0 32 C-15.84 32 -31.68 32 -48 32 C-48 26.72 -48 21.44 -48 16 C-32.16 16 -16.32 16 0 16 C0 10.72 0 5.44 0 0 Z M-16 64 C-16 85.12 -16 106.24 -16 128 C-10.72 128 -5.44 128 0 128 C0 106.88 0 85.76 0 64 C-5.28 64 -10.56 64 -16 64 Z "
          fill="#e5e5e5" transform="translate(128,32)"/>
    <path d="M0 0 C5.28 0 10.56 0 16 0 C16 5.28 16 10.56 16 16 C47.68 16 79.36 16 112 16 C112 10.72 112 5.44 112 0 C117.28 0 122.56 0 128 0 C128 5.28 128 10.56 128 16 C143.84 16 159.68 16 176 16 C176 26.56 176 37.12 176 48 C170.72 48 165.44 48 160 48 C160 42.72 160 37.44 160 32 C96.64 32 33.28 32 -32 32 C-32 37.28 -32 42.56 -32 48 C-37.28 48 -42.56 48 -48 48 C-48 37.44 -48 26.88 -48 16 C-32.16 16 -16.32 16 0 16 C0 10.72 0 5.44 0 0 Z "
          fill="#e5e5e5" transform="translate(192,336)"/>
    <path d="M0 0 C5.28 0 10.56 0 16 0 C16 5.28 16 10.56 16 16 C79.36 16 142.72 16 208 16 C208 10.72 208 5.44 208 0 C213.28 0 218.56 0 224 0 C224 10.56 224 21.12 224 32 C150.08 32 76.16 32 0 32 C0 21.44 0 10.88 0 0 Z "
          fill="#e5e5e5" transform="translate(144,464)"/>
    <path d="M0 0 C5.28 0 10.56 0 16 0 C16 5.28 16 10.56 16 16 C21.28 16 26.56 16 32 16 C32 10.72 32 5.44 32 0 C37.28 0 42.56 0 48 0 C48 5.28 48 10.56 48 16 C53.28 16 58.56 16 64 16 C64 21.28 64 26.56 64 32 C58.72 32 53.44 32 48 32 C48 37.28 48 42.56 48 48 C53.28 48 58.56 48 64 48 C64 53.28 64 58.56 64 64 C58.72 64 53.44 64 48 64 C48 69.28 48 74.56 48 80 C42.72 80 37.44 80 32 80 C32 74.72 32 69.44 32 64 C26.72 64 21.44 64 16 64 C16 69.28 16 74.56 16 80 C10.72 80 5.44 80 0 80 C0 74.72 0 69.44 0 64 C-5.28 64 -10.56 64 -16 64 C-16 58.72 -16 53.44 -16 48 C-10.72 48 -5.44 48 0 48 C0 42.72 0 37.44 0 32 C-5.28 32 -10.56 32 -16 32 C-16 26.72 -16 21.44 -16 16 C-10.72 16 -5.44 16 0 16 C0 10.72 0 5.44 0 0 Z M16 32 C16 37.28 16 42.56 16 48 C21.28 48 26.56 48 32 48 C32 42.72 32 37.44 32 32 C26.72 32 21.44 32 16 32 Z "
          fill="#e5e5e5" transform="translate(192,96)"/>
    <path d="M0 0 C73.92 0 147.84 0 224 0 C224 5.28 224 10.56 224 16 C150.08 16 76.16 16 0 16 C0 10.72 0 5.44 0 0 Z "
          fill="#e5e5e5" transform="translate(144,16)"/>
    <path d="M0 0 C31.68 0 63.36 0 96 0 C96 5.28 96 10.56 96 16 C90.72 16 85.44 16 80 16 C80 31.84 80 47.68 80 64 C74.72 64 69.44 64 64 64 C64 48.16 64 32.32 64 16 C53.44 16 42.88 16 32 16 C32 31.84 32 47.68 32 64 C26.72 64 21.44 64 16 64 C16 48.16 16 32.32 16 16 C10.72 16 5.44 16 0 16 C0 10.72 0 5.44 0 0 Z "
          fill="#e5e5e5" transform="translate(208,256)"/>
    <path d="M0 0 C5.28 0 10.56 0 16 0 C16 31.68 16 63.36 16 96 C21.28 96 26.56 96 32 96 C32 101.28 32 106.56 32 112 C16.16 112 0.32 112 -16 112 C-16 106.72 -16 101.44 -16 96 C-10.72 96 -5.44 96 0 96 C0 74.88 0 53.76 0 32 C-5.28 32 -10.56 32 -16 32 C-16 26.72 -16 21.44 -16 16 C-10.72 16 -5.44 16 0 16 C0 10.72 0 5.44 0 0 Z "
          fill="#e5e5e5" transform="translate(288,80)"/>
    <path d="M0 0 C5.28 0 10.56 0 16 0 C16 36.96 16 73.92 16 112 C10.72 112 5.44 112 0 112 C0 75.04 0 38.08 0 0 Z "
          fill="#e5e5e5" transform="translate(432,64)"/>
    <path d="M0 0 C5.28 0 10.56 0 16 0 C16 36.96 16 73.92 16 112 C10.72 112 5.44 112 0 112 C0 75.04 0 38.08 0 0 Z "
          fill="#e5e5e5" transform="translate(64,64)"/>
    <path d="M0 0 C5.28 0 10.56 0 16 0 C16 5.28 16 10.56 16 16 C26.56 16 37.12 16 48 16 C48 21.28 48 26.56 48 32 C32.16 32 16.32 32 0 32 C0 21.44 0 10.88 0 0 Z "
          fill="#e5e5e5" transform="translate(352,192)"/>
    <path d="M0 0 C5.28 0 10.56 0 16 0 C16 10.56 16 21.12 16 32 C0.16 32 -15.68 32 -32 32 C-32 26.72 -32 21.44 -32 16 C-21.44 16 -10.88 16 0 16 C0 10.72 0 5.44 0 0 Z "
          fill="#e5e5e5" transform="translate(144,192)"/>
    <path d="M0 0 C10.56 0 21.12 0 32 0 C32 5.28 32 10.56 32 16 C21.44 16 10.88 16 0 16 C0 10.72 0 5.44 0 0 Z "
          fill="#e5e5e5" transform="translate(304,240)"/>
    <path d="M0 0 C10.56 0 21.12 0 32 0 C32 5.28 32 10.56 32 16 C21.44 16 10.88 16 0 16 C0 10.72 0 5.44 0 0 Z "
          fill="#e5e5e5" transform="translate(176,240)"/>
    <path d="M0 0 C5.28 0 10.56 0 16 0 C16 5.28 16 10.56 16 16 C10.72 16 5.44 16 0 16 C0 10.72 0 5.44 0 0 Z "
          fill="#e5e5e5" transform="translate(288,320)"/>
    <path d="M0 0 C5.28 0 10.56 0 16 0 C16 5.28 16 10.56 16 16 C10.72 16 5.44 16 0 16 C0 10.72 0 5.44 0 0 Z "
          fill="#e5e5e5" transform="translate(208,320)"/>
    <path d="M0 0 C5.28 0 10.56 0 16 0 C16 5.28 16 10.56 16 16 C10.72 16 5.44 16 0 16 C0 10.72 0 5.44 0 0 Z "
          fill="#e5e5e5" transform="translate(336,224)"/>
    <path d="M0 0 C5.28 0 10.56 0 16 0 C16 5.28 16 10.56 16 16 C10.72 16 5.44 16 0 16 C0 10.72 0 5.44 0 0 Z "
          fill="#e5e5e5" transform="translate(160,224)"/>
    <path d="M0 0 C5.28 0 10.56 0 16 0 C16 5.28 16 10.56 16 16 C10.72 16 5.44 16 0 16 C0 10.72 0 5.44 0 0 Z "
          fill="#e5e5e5" transform="translate(400,192)"/>
    <path d="M0 0 C5.28 0 10.56 0 16 0 C16 5.28 16 10.56 16 16 C10.72 16 5.44 16 0 16 C0 10.72 0 5.44 0 0 Z "
          fill="#e5e5e5" transform="translate(96,192)"/>
    <path d="M0 0 C5.28 0 10.56 0 16 0 C16 5.28 16 10.56 16 16 C10.72 16 5.44 16 0 16 C0 10.72 0 5.44 0 0 Z "
          fill="#e5e5e5" transform="translate(416,176)"/>
    <path d="M0 0 C5.28 0 10.56 0 16 0 C16 5.28 16 10.56 16 16 C10.72 16 5.44 16 0 16 C0 10.72 0 5.44 0 0 Z "
          fill="#e5e5e5" transform="translate(80,176)"/>
</svg>
